<?xml version="1.0" encoding="utf-8"?>
<!-- Generator: Adobe Illustrator 21.0.0, SVG Export Plug-In . SVG Version: 6.00 Build 0)  -->
<svg version="1.1" id="Layer_1" xmlns="http://www.w3.org/2000/svg" xmlns:xlink="http://www.w3.org/1999/xlink" x="0px" y="0px"
	 viewBox="0 0 250 250" style="enable-background:new 0 0 250 250;" xml:space="preserve">
<style type="text/css">
	.st0{fill:#FEFEFE;}
	.st1{fill:#080808;}
	.st2{fill:#0A0A0A;}
	.st3{fill:#0B0B0B;}
	.st4{fill:#0D0D0D;}
	.st5{fill:#434343;}
</style>
<g>
	<path class="st0" d="M255,130c0,39.2-0.2,78.3,0.2,117.5c0.1,6.3-1.4,7.7-7.7,7.7c-79.2-0.2-158.3-0.2-237.5,0
		c-6.2,0-7.7-1.4-7.7-7.7C2.6,168.3,2.6,89.2,2.3,10c0-6.2,1.4-7.7,7.7-7.7c79.2,0.2,158.3,0.2,237.5,0c6.2,0,7.7,1.4,7.7,7.7
		C254.8,50,255,90,255,130z"/>
	<path class="st1" d="M137.1,128.9c0,27.4-0.1,54.9,0,82.3c0,7.8,0,15.7-8.9,18.5c-9,2.8-12.2-3.9-17.1-10.3
		c-13.2-17-27.9-33-42.5-48.9c-5.1-5.5-12.6-2.3-19-2.5c-15.7-0.5-19.1-3.6-19.2-19c-0.1-15-0.1-29.9,0-44.9
		c0.1-13.2,4.2-18.3,17-16.9c14.6,1.5,24.1-3.7,32.4-15.1c10.7-14.7,25.5-26.1,34.6-42.2c3.1-5.5,8.6-6.5,14.1-4.7
		c6.3,2.1,8.6,7.4,8.6,13.8c0,15.8,0,31.6,0,47.4C137.1,100.6,137.1,114.8,137.1,128.9z"/>
	<path class="st2" d="M224.6,127.2c-1,28.8-11.6,53.2-33.8,72.1c-1.9,1.6-4.1,5.4-7.2,2.2c-3.3-3.4,0.8-5.1,2.8-6.7
		c41.8-33.8,42.2-99.7,0.4-134.3c-2-1.6-6.2-3.2-3.5-6.6c3.4-4.1,5.9,0.5,8,2.3C213,74.8,223.4,98.8,224.6,127.2z"/>
	<path class="st3" d="M199.6,128.5c-1,21.3-9.5,39.9-27.5,53.7c-1.9,1.5-4.1,5.3-7.2,2c-3.4-3.7,0.9-4.7,2.8-6.4
		c34-30.7,34.3-69.8,0.8-100c-1.8-1.6-6.6-2.4-3.6-6.2c3.3-4.3,5.9,0.4,8.1,1.9C188.6,84.6,199.5,107,199.6,128.5z"/>
	<path class="st4" d="M174.6,127.5c-0.9,14.8-6.7,27.1-19.1,35.8c-2.3,1.6-5,4.2-7.4,0.8c-2-2.9,1-4.3,3.1-5.5
		c22.2-13.5,22-48.5,0.3-62c-2-1.2-5.3-2.5-3.4-5.5c2.2-3.5,4.9-1.3,7.4,0.4C167.9,100.3,173.7,112.6,174.6,127.5z"/>
	<path class="st0" d="M109.9,207.7c-9.6-10.9-19.9-21.3-28.6-32.9c-7.8-10.5-16.9-15-29.6-12.9c-11.4,1.9-15.6-2.9-14.9-14.5
		c0.9-14.5,0.5-29.1,0.1-43.6c-0.2-8.2,3.3-12.1,11-10.7c16.9,3,28-4.6,37.5-17.6c7.3-10,16.2-18.9,24.4-28.2
		c2.6-0.7,5.2-1.5,5.4-4.8c1-2.2,2-4.4,3.1-6.6c1.5-3.2,3.6-5.8,7.6-4.6c3.9,1.2,4.4,4.5,4.3,8c0,2.1,0,4.1,0,6.2
		c0,54.7,0.1,109.5-0.1,164.2c0,4.9,2.8,12.1-4.3,14c-8.3,2.2-7.2-7.1-10.7-11C115.1,209.2,112.5,208.5,109.9,207.7z"/>
	<path class="st5" d="M115.3,42.4c2.4,1.4,3.6,3.5,1.8,5.8c-2.7,3.5-4.7-1.2-7.2-1C110.7,44.5,113.1,43.6,115.3,42.4z"/>
	<path class="st5" d="M109.9,207.7c2.5,0.2,4.5-4.5,7.2-1c1.8,2.3,0.6,4.4-1.8,5.8C113.1,211.4,110.7,210.5,109.9,207.7z"/>
	<path d="M117.5,58c-0.1,2.1-0.8,3.6-2.7,3.4c-0.9-0.1-2.1-1.3-2.2-2.2c-0.3-1.7,0.6-3.2,2.5-3C116.1,56.3,116.9,57.4,117.5,58z"/>
	<path d="M117.7,70.8c-0.5,1.8-1,3.6-3.1,3c-0.9-0.2-2.1-1.5-2.1-2.4c0-1.5,0.8-3.3,2.8-2.8C116.3,68.9,117,70.1,117.7,70.8z"/>
	<path d="M117.5,83c-0.1,2.1-0.8,3.6-2.7,3.4c-0.9-0.1-2.1-1.3-2.2-2.2c-0.3-1.7,0.6-3.2,2.5-3C116.1,81.3,116.9,82.4,117.5,83z"/>
	<path d="M113.6,93.2c3.4,0.8,4.3,2,3.7,3.7c-0.3,0.9-1.6,1.9-2.5,1.9c-1.8,0-2.6-1.5-2.2-3.3C112.9,94.4,113.5,93.4,113.6,93.2z"/>
	<path d="M115.1,105.9c0.7,0.6,1.8,1.2,2.2,2c0.8,1.8-0.3,3.1-2,3.4c-0.8,0.1-2.1-0.9-2.6-1.7C111.9,107.8,113.1,106.8,115.1,105.9z
		"/>
	<path d="M115.3,118.3c1.5,1.2,3.1,2.2,1.9,4c-0.5,0.8-2.1,1.7-2.7,1.5c-1.4-0.5-2.8-1.8-1.6-3.6
		C113.4,119.3,114.5,118.9,115.3,118.3z"/>
	<path d="M113.6,136.8c-0.1-0.2-0.7-1.3-1-2.3c-0.4-1.8,0.4-3.2,2.2-3.2c0.8,0,2.1,1,2.5,1.9C117.9,134.8,116.9,136,113.6,136.8z"/>
	<path d="M117.7,145.8c-0.5,1.8-1,3.6-3.1,3c-0.9-0.2-2.1-1.5-2.1-2.4c0-1.5,0.8-3.3,2.8-2.8C116.3,143.9,117,145.1,117.7,145.8z"/>
	<path d="M117,160.3c-0.6,0.3-1.8,1.3-2.6,1c-1.4-0.5-2.8-1.9-1.6-3.6c0.5-0.8,2-1.7,2.7-1.5C117,156.7,118.2,158,117,160.3z"/>
	<path d="M113.6,168.2c3.4,0.8,4.3,2,3.7,3.7c-0.3,0.9-1.6,1.9-2.5,1.9c-1.8,0-2.6-1.5-2.2-3.3C112.9,169.4,113.5,168.4,113.6,168.2
		z"/>
	<path d="M117.7,184.3c-0.7,0.7-1.4,1.8-2.4,2.1c-2.1,0.5-2.8-1.3-2.8-2.8c0-0.8,1.3-2.1,2.2-2.3
		C116.8,180.7,117.2,182.5,117.7,184.3z"/>
	<path d="M113.6,193.2c3.4,0.8,4.3,2,3.7,3.7c-0.3,0.9-1.6,1.9-2.5,1.9c-1.8,0-2.6-1.5-2.2-3.3C112.9,194.4,113.5,193.4,113.6,193.2
		z"/>
</g>
</svg>
