<?xml version="1.0" encoding="utf-8"?>
<!-- Generator: Adobe Illustrator 21.0.0, SVG Export Plug-In . SVG Version: 6.00 Build 0)  -->
<svg version="1.1" id="Layer_1" xmlns="http://www.w3.org/2000/svg" xmlns:xlink="http://www.w3.org/1999/xlink" x="0px" y="0px"
	 viewBox="0 0 250 250" style="enable-background:new 0 0 250 250;" xml:space="preserve">
<style type="text/css">
	.st0{fill:#FEFEFE;}
	.st1{fill:#030303;}
	.st2{fill:#F4F4F4;}
	.st3{fill:#323232;}
	.st4{fill:#0D0D0D;}
	.st5{fill:#363636;}
	.st6{fill:#0F0F0F;}
	.st7{fill:#393939;}
	.st8{fill:#303030;}
	.st9{fill:#313131;}
	.st10{fill:#101010;}
	.st11{fill:#111111;}
	.st12{fill:#131313;}
	.st13{fill:#171717;}
</style>
<g>
	<path class="st0" d="M128.8,255c-39.5,0-79.1-0.1-118.6,0.1c-5.9,0-7.9-0.8-7.8-7.5c0.3-79.5,0.3-159,0-238.5
		c0-6.3,1.8-6.9,7.2-6.8c79.5,0.2,159,0.2,238.5,0c5.4,0,7.3,0.5,7.2,6.8c-0.3,79.9-0.3,159.8,0,239.7c0,5.6-1.5,6.3-6.6,6.2
		C208.7,254.9,168.7,255,128.8,255z"/>
	<path class="st1" d="M33.7,126.7c0-29.1-0.1-58.2,0-87.4C33.8,22.8,38.8,18,55.5,18c46.6-0.1,93.2-0.1,139.8,0
		c15.2,0,17.9,2.8,18,18.5c0.1,52.8-0.2,105.7,0.2,158.5c0.1,13-10.4,22.5-9.9,35.8c0.2,4.6-6.9,6.3-12.2,6.3
		c-46.6,0-93.2,0.1-139.8-0.1c-12.7-0.1-17.7-6.2-17.8-20.3C33.6,186.7,33.7,156.7,33.7,126.7z"/>
	<path class="st0" d="M41.8,205.4c0-56.2,0.1-112.4-0.1-168.6c0-8.2,4-11,11.6-11c47.9,0.1,95.8,0.1,143.7-0.1c6.6,0,8.5,2.6,8.5,9
		c-0.2,54.2-0.2,108.3,0,162.5c0,6.9-2.8,8.3-8.9,8.3c-35.8-0.2-71.7-0.3-107.5,0.1c-7.5,0.1-8.9-2.6-8.8-9.4
		c0.3-39.2,0.1-78.3,0.1-117.5c0-2.9,0.1-5.8-0.1-8.7c-0.2-2-0.4-4.4-3.1-4.6c-3.1-0.1-4.3,2.1-4.4,4.8c-0.2,2.9-0.1,5.8-0.1,8.7
		c0,38.3-0.3,76.7,0.2,115c0.1,9-1.6,13-11.4,11.6C55.5,204.7,49.2,205.4,41.8,205.4z"/>
	<path class="st2" d="M122.5,213.3c22.1,0,44.1,0.1,66.2-0.1c5.5,0,9.5,0,9.3,7.6c-0.2,6.8-3,8.5-9.1,8.5c-45-0.1-89.9,0-134.9-0.1
		c-5.6,0-11.8-0.3-11.8-7.7c0-7.2,5.9-8.1,11.7-8.2C76.7,213.3,99.6,213.3,122.5,213.3z"/>
	<path class="st3" d="M127.3,104.5c-5.8,0-11.6,0.1-17.3,0c-2.5-0.1-5.1-0.8-5.5-3.8c-0.4-3.1,1.9-4.5,4.6-4.5
		c12.4-0.1,24.7-0.1,37.1,0.1c2.1,0,4.1,1.1,4.3,3.5c0.3,3.2-2,4.5-4.6,4.6c-6.2,0.2-12.4,0.1-18.6,0.1
		C127.3,104.4,127.3,104.5,127.3,104.5z"/>
	<path class="st4" d="M142.7,119.7c-6.2,0-12.4,0.1-18.6,0c-2.3,0-3.9-1.6-4-3.9c-0.1-2.6,2-3.5,4.1-3.6c12.4-0.1,24.9-0.1,37.3-0.1
		c2.2,0,4.4,0.9,4.5,3.3c0.2,2.8-1.7,4.5-4.6,4.5c-6.2,0-12.4,0-18.7,0C142.7,119.8,142.7,119.7,142.7,119.7z"/>
	<path class="st5" d="M170.9,95.7c4.1,1,11.2-1.7,10.8,4.6c-0.4,6.7-7.7,4-12.2,4.2c-3.8,0.2-10.1,1.5-10.1-3.7
		C159.5,93.4,166.8,96.8,170.9,95.7z"/>
	<path class="st6" d="M80.7,45.3c-1.3,3.9,2.4,11.2-3.9,11.3c-6.2,0.1-4.1-7.1-3.9-11.2c0.1-3.9-2.7-10.9,4.4-10.5
		C82.9,35.1,79.5,41.6,80.7,45.3z"/>
	<path class="st7" d="M56.6,33.2c3.8,0.6,8.2-0.2,8.2,4.5c0,4.5-4.2,4.4-7.5,4.4c-3.3,0-7.4,0.3-7.5-4.4
		C49.7,32.7,54.3,34.1,56.6,33.2z"/>
	<path class="st8" d="M58.4,61.7c-3.7-0.6-8,0.4-8.5-4.1c-0.5-4.7,3.6-4.7,6.9-4.8c3.3-0.1,7.4-0.3,8,3.9
		C65.4,61.6,60.7,60.7,58.4,61.7z"/>
	<path class="st8" d="M57.7,139.8c-3.9-0.3-8,0.1-7.8-4.7c0.2-4.6,4.5-4.2,7.6-4.1c3.1,0.1,7.5-0.2,7.3,4.5
		C64.5,140,60.2,139.4,57.7,139.8z"/>
	<path class="st9" d="M65.2,154.8c-2.1,5-6,4.6-9.7,4.4c-2.9-0.2-6.5-1-5.7-4.8c1-5.1,5.6-3.8,9.2-3.9
		C62.1,150.5,64.4,151.9,65.2,154.8z"/>
	<path class="st10" d="M57.3,100.2c-3.1-0.3-7.5,0.9-7.3-4.2c0.1-4,3.8-3.7,6.6-3.6c3.2,0.1,7.6-1,8,3.6
		C65,100.8,60.4,99.9,57.3,100.2z"/>
	<path class="st11" d="M56.7,197.8c-2.8-0.3-6.6,0.6-6.8-3.5c-0.3-5,3.9-4.3,7.1-4.3c3.3,0,7.7-0.5,7.5,4.1
		C64.4,198.7,59.8,197.5,56.7,197.8z"/>
	<path class="st12" d="M56.6,80.6c-2.8-0.4-6.7,0.5-6.7-3.7c0-4.8,4.1-4.3,7.4-4.3c3.3,0,7.6-0.2,7.2,4.5
		C64.2,81.8,59.5,80,56.6,80.6z"/>
	<path class="st12" d="M57.6,111.8c3.4,0.6,7.4-0.1,7,4.1c-0.4,4.4-4.5,4-7.9,4c-3.4,0-7.4,0-6.7-4.8
		C50.8,110.1,55.6,113.1,57.6,111.8z"/>
	<path class="st13" d="M56.7,178.3c-2.8-0.4-6.7,0.5-6.8-3.7c-0.1-4.8,3.9-4.5,7.3-4.5c3.3,0,7.6-0.2,7.3,4.4
		C64.3,179.3,59.7,177.8,56.7,178.3z"/>
</g>
</svg>
