<?xml version="1.0" encoding="utf-8"?>
<!-- Generator: Adobe Illustrator 21.0.0, SVG Export Plug-In . SVG Version: 6.00 Build 0)  -->
<svg version="1.1" id="Layer_1" xmlns="http://www.w3.org/2000/svg" xmlns:xlink="http://www.w3.org/1999/xlink" x="0px" y="0px"
	 viewBox="0 0 250 250" style="enable-background:new 0 0 250 250;" xml:space="preserve">
<style type="text/css">
	.st0{fill:#FEFEFE;}
	.st1{fill:#FDFDFD;}
	.st2{fill:#121212;}
</style>
<g>
	<path class="st0" d="M129.9,256.3c-39,0-78-0.1-117,0.1c-6.9,0-10.1-0.3-10-9.1c0.5-78.5,0.4-157,0.1-235.6c0-7.4,1.4-8.8,8.8-8.8
		c78.5,0.3,157,0.4,235.6-0.1c8.8-0.1,9.1,3.2,9.1,10c-0.2,78-0.3,156,0.1,234c0,7.8-1.7,9.7-9.6,9.6
		C207.9,256,168.9,256.3,129.9,256.3z"/>
	<path d="M190.6,128.1c0,26.5-0.2,53,0.1,79.5c0.2,14.5-6.5,20.7-20.8,20.6c-28.1-0.3-56.2-0.2-84.2,0c-13.6,0.1-20.1-6-20.1-19.7
		c0.1-53.6,0.1-107.1,0-160.7c0-13.7,6.5-19.8,20-19.7c28.1,0.2,56.2,0.3,84.2,0c14.3-0.2,21,6,20.9,20.5
		C190.4,75.1,190.6,101.6,190.6,128.1z"/>
	<path class="st0" d="M71.9,114.1c0-21.3,0.4-42.6-0.1-63.9C71.5,38.9,75.4,34,87.1,34.2c27.5,0.5,55.1,0.4,82.6,0
		c10.7-0.1,14.9,4.1,14.8,14.8c-0.3,44.2-0.3,88.4,0.1,132.5c0.1,8-2.9,9.2-9.9,9.2c-31.2-0.3-62.4-0.4-93.5,0
		c-7.7,0.1-9.5-2.4-9.4-9.7C72.2,158.8,71.9,136.4,71.9,114.1z"/>
	<path class="st1" d="M129.2,196.9c14.5,0,29.1-0.2,43.6,0.1c4.8,0.1,12.3-3.4,11.6,6.9c-0.5,7.7,1.4,17.4-9.9,17.6
		c-31.1,0.6-62.3,0.7-93.4-0.1c-11.2-0.3-8.8-10.6-9.3-18.1c-0.6-9.4,6.3-6.2,10.7-6.3C98.1,196.7,113.6,196.9,129.2,196.9z"/>
	<path d="M97.2,64c22.7,0,45.5,0,68.2,0c0,1,0,2.1,0,3.1c-22.7,0-45.5,0-68.2,0C97.2,66.1,97.2,65,97.2,64z"/>
	<path d="M165.3,104.8c-22.7,0-45.5,0-68.2,0c0-1-0.1-2-0.1-3c22.7,0,45.5,0,68.2,0C165.3,102.8,165.3,103.8,165.3,104.8z"/>
	<path d="M165.3,142.3c-22.7,0-45.5,0-68.2,0c0-1,0-2.1,0-3.1c22.7,0,45.5,0,68.2,0C165.3,140.2,165.3,141.2,165.3,142.3z"/>
	<path d="M97.1,82.7c18.6,0,37.2,0,55.7,0c0,1,0.1,2,0.1,2.9c-18.6,0-37.2,0-55.8,0C97.2,84.7,97.1,83.7,97.1,82.7z"/>
	<path d="M152.9,123.4c-18.6,0-37.1,0-55.7,0c0-0.9-0.1-1.8-0.1-2.7c18.6,0,37.1,0,55.7,0C152.8,121.6,152.9,122.5,152.9,123.4z"/>
	<path d="M152.9,161c-18.6,0-37.1,0-55.7,0c0-1-0.1-1.9-0.1-2.9c18.6,0,37.2,0,55.8,0C152.8,159.1,152.8,160.1,152.9,161z"/>
	<path class="st2" d="M134.2,209.6c-0.7,3.4-2.5,5.8-6.1,5.7c-4.3-0.1-6.6-2.9-6-7c0.5-3.2,3.1-5.4,6.6-4.9
		C132.1,203.9,134.1,206.1,134.2,209.6z"/>
</g>
</svg>
