<?xml version="1.0" encoding="utf-8"?>
<!-- Generator: Adobe Illustrator 21.0.0, SVG Export Plug-In . SVG Version: 6.00 Build 0)  -->
<svg version="1.1" id="Layer_1" xmlns="http://www.w3.org/2000/svg" xmlns:xlink="http://www.w3.org/1999/xlink" x="0px" y="0px"
	 viewBox="0 0 250 250" style="enable-background:new 0 0 250 250;" xml:space="preserve">
<style type="text/css">
	.st0{fill:#070707;}
	.st1{fill:#FDFDFD;}
	.st2{fill:#0F0F0F;}
	.st3{fill:#F3F3F3;}
</style>
<g>
	<path class="st0" d="M122.3,26.1c14.8-0.8,29.1,4,41.1,15.5c2.2,2.1,4.8,4.1,7.5,5.3c29.2,12.8,37.4,27.3,33.2,59.7
		c-1.5,11.6-6.2,22.8-2.5,34.9c0.8,2.5-0.3,7.4-2.2,8.6c-13.1,8.5-13,23.9-19.7,35.6c-0.8,1.4-1.5,2.8-2.3,4.1
		c-14,21.1-30.6,40.1-58.6,36.6C88,222.6,72,199.8,61.2,173.1c-2.9-7.1-3.9-14.6-11.6-18.9c-4.2-2.4-6.4-8-5-12.4
		c4.1-12.1-0.6-23.3-2-34.9C37.1,59.3,68.9,26.5,122.3,26.1z"/>
	<path class="st1" d="M68.6,139c-2.7-29.9,19.5-34.9,41.1-40.7c4.9-1.3,9.5-4.9,14.4-5.4c7.7-0.8,6.3-15.9,17.1-10.4
		c16.7,8.5,34.6,15.9,35.6,38.8c0.2,3.6,0.1,7.3,0.8,10.9c0.5,2.9,2.6,7.5,5.5,2.8c4.5-7.5,8.1-2.9,10.5,0.3
		c4,5.2,3.2,12.6-2.5,14.7c-8.9,3.3-8.9,10.4-10.8,17.1c-0.7,2.5-1.4,5-2.4,7.4c-10.8,27.2-34.1,46.6-55.3,46.3
		c-21.7-0.3-46.3-22.6-55.6-50.4c-2.7-7.9-2.8-16.4-12.6-21.2c-5.8-2.9-5.2-10.7,0.7-15.9C63.1,126.1,61.7,139.1,68.6,139z"/>
	<path class="st2" d="M117.6,143.4c1.3,11.1-2.5,19-11.9,23.8c-9.1,4.7-17.3,2.5-24.2-4.2c-6-5.9-7.9-13.3-5.3-21.5
		c2.9-9.2,11.1-10.1,18.8-11c18.5-2.1,37.1-3.3,55.7-0.2c10.2,1.7,20.3,3.2,20.6,16.4c0.3,12.8-6.9,20.5-19.1,22.7
		c-10.6,2-21.5-7.1-23.1-18.3c-0.4-2.5-0.5-5.2,0.1-7.7c1.1-5.2,3.5-10.3-5.5-10.4C113.9,132.9,115.6,138.3,117.6,143.4z"/>
	<path class="st3" d="M96.5,136.8c6.9,1.2,15.3,0.6,14.9,11.4c-0.3,9.3-6.1,14.7-14.7,14.9c-8.8,0.2-14.4-5.5-15.1-14.6
		C80.9,137.9,89.3,138.1,96.5,136.8z"/>
	<path class="st3" d="M149.3,136.7c6.8,1.4,15.5,0.3,15.5,10.9c0,9.2-5.4,15-14.1,15.4c-8.7,0.4-14.5-4.7-15.5-13.9
		C134.2,138.5,142,137.9,149.3,136.7z"/>
</g>
</svg>
