<?xml version="1.0" encoding="utf-8"?>
<!-- Generator: Adobe Illustrator 21.0.0, SVG Export Plug-In . SVG Version: 6.00 Build 0)  -->
<svg version="1.1" id="Layer_1" xmlns="http://www.w3.org/2000/svg" xmlns:xlink="http://www.w3.org/1999/xlink" x="0px" y="0px"
	 viewBox="0 0 250 250" style="enable-background:new 0 0 250 250;" xml:space="preserve">
<style type="text/css">
	.st0{fill:#FDFDFD;}
	.st1{fill:#0B0B0B;}
	.st2{fill:#FBFBFB;}
</style>
<g>
	<path class="st0" d="M255,130c0,39.2-0.2,78.3,0.2,117.5c0.1,6.3-1.4,7.7-7.7,7.7c-79.2-0.2-158.3-0.2-237.5,0
		c-6.3,0-7.7-1.4-7.7-7.7C2.6,168.3,2.6,89.2,2.3,10c0-6.3,1.4-7.7,7.7-7.7c79.2,0.2,158.3,0.2,237.5,0c6.3,0,7.7,1.4,7.7,7.7
		C254.8,50,255,90,255,130z M128.4,230c21.6,0,43.3,0,64.9,0c20.3,0,26.6-6.2,26.6-26.5c0-46.2-0.1-92.4,0.2-138.6
		c0-3.3-3.5-9.2,3.5-9.8c11-1,6.6-7.8,4.4-12.4c-5.2-11-15.5-12.8-26.3-12.8c-39.5,0-79.1-0.1-118.6,0c-17.5,0-25.7,8.2-25.8,26
		c-0.1,28.3-0.8,56.6,0.2,84.9c0.5,13-1.9,19.6-16.3,16.7c-7.2-1.5-9.4,1.8-9.1,8.8c0.5,12.5,0.1,25,0.2,37.4
		c0.1,19.6,6.5,26.1,26.1,26.2C81.8,230.1,105.1,230,128.4,230z"/>
	<path class="st1" d="M128.4,230c-23.3,0-46.6,0.1-69.9,0c-19.6-0.1-26-6.6-26.1-26.2c0-12.5,0.4-25-0.2-37.4
		c-0.3-7.1,1.9-10.3,9.1-8.8c14.3,3,16.8-3.7,16.3-16.7c-1-28.3-0.4-56.6-0.2-84.9c0.1-17.8,8.2-26,25.8-26c39.5-0.1,79.1,0,118.6,0
		c10.8,0,21.2,1.8,26.3,12.8c2.2,4.6,6.6,11.4-4.4,12.4c-7.1,0.6-3.5,6.6-3.5,9.8c-0.3,46.2-0.2,92.4-0.2,138.6
		c0,20.3-6.3,26.5-26.6,26.5C171.7,230,150.1,230,128.4,230z M57.3,219.9c0-17-0.4-33.8,0.1-50.6c0.3-9.8-6.4-6.3-11-6.7
		c-5.1-0.5-9.8-1-9.1,7.2c0.8,10.8,0.2,21.6,0.2,32.5c0,18.8,3.7,22.6,22.5,22.6c45,0,89.9,0,134.9,0c15.3,0,19.9-4.4,19.9-19.9
		c0.1-47-0.1-94.1,0.2-141.1c0-6.9-1.6-9.2-8.8-9.1c-22.1,0.5-44.1,0.3-66.2,0.1c-3.2,0-7.4,1.8-11.1-4.8c32.9,0,64.2,0,97,0
		c-5-13.2-14-15-23.9-15.1c-38.7,0-77.4,0-116.1,0c-18.4,0-23.3,5-23.3,23.8c-0.1,49.1-0.1,98.2-0.1,147.4
		C62.3,211.6,63.8,217.8,57.3,219.9z"/>
	<path class="st2" d="M57.3,219.9c6.5-2.1,5-8.3,5-13.7c0.1-49.1,0.1-98.2,0.1-147.4c0-18.9,4.9-23.8,23.3-23.8
		c38.7,0,77.4,0,116.1,0c10,0,18.9,1.8,23.9,15.1c-32.7,0-64.1,0-97,0c3.7,6.7,7.9,4.8,11.1,4.8c22.1,0.2,44.1,0.4,66.2-0.1
		c7.2-0.2,8.9,2.1,8.8,9.1c-0.3,47-0.1,94.1-0.2,141.1c0,15.6-4.6,19.9-19.9,19.9c-45,0-89.9,0-134.9,0c-18.8,0-22.5-3.8-22.5-22.6
		c0-10.8,0.6-21.7-0.2-32.5c-0.6-8.2,4.1-7.7,9.1-7.2c4.6,0.5,11.3-3.1,11,6.7C56.9,186.1,57.3,202.9,57.3,219.9z M165.7,206.6
		c0-14-4.1-27.9,1.1-34.4c5.6-6.9,20.2-1.5,30.8-2.2c1.2-0.1,2.5,0,3.7,0c2.5,0,3.7,1.4,3.6,3.8c-0.2,10.7,2.1,22.5-1.6,31.8
		c-2.1,5.3-14.5,1-22.1,1.8c-2.4,0.2-4.8,0.4-9.6,0.7c35,6.3,35.9,5.6,35.9-25.3c0-3.3-0.1-6.6,0-10c0.1-3.4-0.7-5.7-4.7-5.5
		c-13.1,0.7-28.8-4.8-38.6,2.3c-6.5,4.7-1.5,21-1.6,32.1C162.7,202.2,163.1,202.6,165.7,206.6z M119,149.9
		c-7.2-3.6-11.9-2.4-16.3-2.4c-29-0.1-29-0.1-27.7-29.8c0-0.4,0.1-0.8,0-1.2c-0.9-5.9,2.2-6.8,7.2-6.7c8.6,0.3,17.2,0.1,25.8,0.1
		c-35.8-5.2-35.8-5.2-35.6,29.2c0,1.7,0.1,3.3,0,5c-0.3,4.1,1.1,6,5.6,5.9C90.7,149.8,103.4,149.9,119,149.9z M207.8,89.3
		c0.1-0.4,0.3-0.8,0.4-1.2c-27.2,0-54.4,0-81.7,0c0,0.4,0,0.8,0,1.2C153.6,89.3,180.7,89.3,207.8,89.3z M131.5,113
		c0,0.4,0,0.8,0,1.2c25.6,0,51.1,0,76.7,0c0-0.4,0-0.8,0-1.2C182.6,113,157,113,131.5,113z M208.3,131.9c-0.2-0.4-0.4-0.8-0.5-1.3
		c-25.4,0-50.7,0-76.1,0c0,0.4,0,0.8,0,1.3C157.2,131.9,182.7,131.9,208.3,131.9z M207.9,149.3c0.1-0.4,0.1-0.8,0.2-1.3
		c-25.6,0-51.1,0-76.7,0c0,0.4,0,0.8,0,1.3C156.9,149.3,182.4,149.3,207.9,149.3z M150.8,169.4c-0.2-0.4-0.4-0.8-0.6-1.2
		c-25.4,0-50.7,0-76.1,0c0,0.4,0,0.8,0,1.2C99.7,169.4,125.2,169.4,150.8,169.4z M150.8,186.9c-0.2-0.4-0.4-0.8-0.5-1.2
		c-25.4,0-50.7,0-76.1,0c0,0.4,0,0.8,0,1.2C99.7,186.9,125.2,186.9,150.8,186.9z M74.5,203.1c-0.1,0.4-0.1,0.8-0.2,1.3
		c25.6,0,51.1,0,76.7,0c0-0.4,0-0.8,0-1.3C125.4,203.1,100,203.1,74.5,203.1z M74.9,72.9c-0.4,0.4-0.7,0.8-1.1,1.3
		c18.9,0,37.8,0,56.7,0c0-0.4,0-0.8,0-1.3C112,72.9,93.5,72.9,74.9,72.9z M117.9,89.3c0.1-0.4,0.1-0.8,0.2-1.2
		c-14.7,0-29.4,0-44.2,0c0,0.4,0,0.8,0,1.2C88.6,89.3,103.2,89.3,117.9,89.3z M173.5,74.3c0-0.4,0-0.7,0-1.1c-11.4,0-22.7,0-34.1,0
		c0,0.4,0,0.7,0,1.1C150.8,74.3,162.1,74.3,173.5,74.3z"/>
	<path class="st1" d="M165.7,206.6c-2.6-4-3-4.4-3-4.7c0.1-11.1-4.9-27.3,1.6-32.1c9.7-7.1,25.4-1.7,38.6-2.3c4-0.2,4.8,2.1,4.7,5.5
		c-0.1,3.3,0,6.6,0,10c0,30.9-0.9,31.6-35.9,25.3c4.8-0.4,7.2-0.5,9.6-0.7c7.7-0.8,20,3.5,22.1-1.8c3.7-9.3,1.4-21.1,1.6-31.8
		c0-2.5-1.1-3.8-3.6-3.8c-1.2,0-2.5-0.1-3.7,0c-10.6,0.8-25.1-4.7-30.8,2.2C161.6,178.6,165.7,192.6,165.7,206.6z"/>
	<path class="st1" d="M119,149.9c-15.6,0-28.3-0.1-41,0.1c-4.5,0.1-5.9-1.8-5.6-5.9c0.1-1.6,0-3.3,0-5c-0.3-34.4-0.3-34.4,35.6-29.2
		c-8.6,0-17.2,0.2-25.8-0.1c-5-0.2-8.1,0.8-7.2,6.7c0.1,0.4,0,0.8,0,1.2c-1.2,29.7-1.2,29.6,27.7,29.8
		C107.2,147.5,111.8,146.4,119,149.9z"/>
	<path class="st1" d="M207.8,89.3c-27.1,0-54.2,0-81.2,0c0-0.4,0-0.8,0-1.2c27.2,0,54.4,0,81.7,0C208.1,88.4,207.9,88.8,207.8,89.3z
		"/>
	<path class="st1" d="M131.5,113c25.6,0,51.1,0,76.7,0c0,0.4,0,0.8,0,1.2c-25.6,0-51.1,0-76.7,0C131.5,113.8,131.5,113.4,131.5,113z
		"/>
	<path class="st1" d="M208.3,131.9c-25.5,0-51.1,0-76.6,0c0-0.4,0-0.8,0-1.3c25.4,0,50.7,0,76.1,0
		C207.9,131.1,208.1,131.5,208.3,131.9z"/>
	<path class="st1" d="M207.9,149.3c-25.5,0-51,0-76.5,0c0-0.4,0-0.8,0-1.3c25.6,0,51.1,0,76.7,0C208,148.5,207.9,148.9,207.9,149.3z
		"/>
	<path class="st1" d="M150.8,169.4c-25.6,0-51.1,0-76.7,0c0-0.4,0-0.8,0-1.2c25.4,0,50.7,0,76.1,0
		C150.4,168.6,150.6,169,150.8,169.4z"/>
	<path class="st1" d="M150.8,186.9c-25.5,0-51.1,0-76.6,0c0-0.4,0-0.8,0-1.2c25.4,0,50.7,0,76.1,0
		C150.4,186.1,150.6,186.5,150.8,186.9z"/>
	<path class="st1" d="M74.5,203.1c25.5,0,51,0,76.5,0c0,0.4,0,0.8,0,1.3c-25.6,0-51.1,0-76.7,0C74.3,203.9,74.4,203.5,74.5,203.1z"
		/>
	<path class="st1" d="M74.9,72.9c18.5,0,37.1,0,55.6,0c0,0.4,0,0.8,0,1.3c-18.9,0-37.8,0-56.7,0C74.2,73.8,74.6,73.3,74.9,72.9z"/>
	<path class="st1" d="M117.9,89.3c-14.7,0-29.3,0-44,0c0-0.4,0-0.8,0-1.2c14.7,0,29.4,0,44.2,0C118,88.5,118,88.9,117.9,89.3z"/>
	<path class="st1" d="M173.5,74.3c-11.3,0-22.7,0-34,0c0-0.4,0-0.7,0-1.1c11.4,0,22.7,0,34.1,0C173.5,73.6,173.5,74,173.5,74.3z"/>
</g>
</svg>
