<?xml version="1.0" encoding="utf-8"?>
<!-- Generator: Adobe Illustrator 21.0.0, SVG Export Plug-In . SVG Version: 6.00 Build 0)  -->
<svg version="1.1" id="Layer_1" xmlns="http://www.w3.org/2000/svg" xmlns:xlink="http://www.w3.org/1999/xlink" x="0px" y="0px"
	 viewBox="0 0 250 250" style="enable-background:new 0 0 250 250;" xml:space="preserve">
<style type="text/css">
	.st0{fill:#FEFEFE;}
	.st1{fill:#090909;}
</style>
<g>
	<path class="st0" d="M2.5,2.5c81.2,0,162.5,0.1,243.7-0.2c7.5,0,9,1.5,9,9c-0.3,78.3-0.3,156.7,0,235c0,7.5-1.5,9-9,9
		c-78.3-0.3-156.7-0.3-235,0c-7.5,0-9-1.5-9-9C2.6,165,2.5,83.8,2.5,2.5z M127.5,22.5c-36.2,0-72.5,0.2-108.7-0.2
		C10,22.2,7.3,25.1,7.3,33.8c0.3,62.5,0.3,125,0,187.4c0,8.8,2.7,11.5,11.5,11.4c72.5-0.3,145-0.3,217.4,0c8.8,0,11.5-2.7,11.4-11.5
		c-0.3-62.5-0.3-125,0-187.4c0-8.8-2.7-11.5-11.5-11.4C200,22.7,163.7,22.5,127.5,22.5z"/>
	<path d="M127.5,22.5c36.2,0,72.5,0.2,108.7-0.2c8.7-0.1,11.5,2.6,11.5,11.4c-0.3,62.5-0.3,125,0,187.4c0,8.7-2.7,11.5-11.4,11.5
		c-72.5-0.3-145-0.3-217.4,0c-8.7,0-11.5-2.7-11.5-11.4c0.3-62.5,0.3-125,0-187.4c0-8.7,2.6-11.6,11.4-11.5
		C55,22.7,91.2,22.5,127.5,22.5z M126.2,197.5c33.7,0,67.5-0.3,101.2,0.2c8.1,0.1,10.3-2,10.2-10.2c-0.4-40-0.4-80,0-120
		c0.1-8.2-2.1-10.3-10.2-10.2c-66.7,0.3-133.3,0.3-200,0c-8.1,0-10.3,2-10.2,10.2c0.4,40,0.4,80,0,120c-0.1,8.2,2,10.3,10.2,10.2
		C60.4,197.2,93.3,197.5,126.2,197.5z M52.6,47.5c5-0.2,10.2,1.7,10.2-7.3c0.1-9.9-5.9-7.3-11.1-7.7c-6-0.5-9.6-0.1-9.6,8
		C42.2,49.7,47.8,47.2,52.6,47.5z M79.9,47.7c6.8-0.6,13,2.4,13-7.7c-0.1-8.9-5-7.6-10.1-7.4C78,32.7,72,30,72.2,39.5
		C72.3,47.1,75.2,48.7,79.9,47.7z M112.7,32.5c-4.8,0.3-10.5-2.2-10.5,7c0,8.1,3.6,8.5,9.6,8c5.2-0.5,11.2,2.2,11.1-7.7
		C122.8,30.8,117.6,32.7,112.7,32.5z M139.8,47.7c6.7-0.7,13.2,2.6,13.1-7.6c-0.1-8.6-4.6-8-10-7.5c-4.6,0.4-10.8-2.8-10.7,6.8
		C132.4,46.7,134.8,48.9,139.8,47.7z M172.7,47.5c4.8-0.2,10.3,2.1,10.2-7.2c-0.1-8.3-4.1-8.2-9.8-7.8c-5.3,0.3-11.2-2-10.9,7.9
		C162.4,49.4,167.5,47.4,172.7,47.5z M202.4,47.4c4.9-0.1,10.4,2.1,10.4-7.1c0-8.2-3.8-8.4-9.6-7.9c-5.3,0.4-11.2-2.1-11,7.8
		C192.3,49.2,197.3,47.5,202.4,47.4z M52.4,222.4c4.9-0.1,10.4,2.1,10.4-7c0-8.1-3.7-8.4-9.6-7.9c-5.3,0.4-11.2-2.2-11,7.8
		C42.3,224.1,47.3,222.6,52.4,222.4z M80.5,207.6c-3,0-8.4-2-8.4,7.1c0,8.3,3.9,8.3,9.7,7.9c5.3-0.4,11.2,2.1,11-7.8
		C92.6,205.7,87.6,207.5,80.5,207.6z M115.9,222.8c4.8,1.6,6.6-1.4,6.8-8.5c0.3-9.6-6.1-6.3-10.7-6.7c-5.5-0.5-9.9-1-9.9,7.6
		C102.1,225.3,108.6,221.9,115.9,222.8z M142.6,222.5c5-0.2,10.2,1.7,10.2-7.3c0.1-9.9-5.9-7.3-11.1-7.7c-6-0.5-9.6-0.1-9.6,8
		C132.2,224.7,137.8,222.2,142.6,222.5z M169.9,222.7c6.8-0.6,13,2.4,13-7.7c-0.1-8.9-5-7.6-10.1-7.4c-4.7,0.2-10.7-2.5-10.5,6.9
		C162.3,222.1,165.2,223.7,169.9,222.7z M202.1,207.6c-4,0.4-10-2.5-9.9,6.9c0.1,7.8,3.2,8.8,9.4,8.1c5.1-0.6,11.3,2.5,11.2-7.6
		C212.8,206.1,208,207.4,202.1,207.6z M24.6,47.4c5.3,0.9,8.7,0,8.1-6.7c-0.4-4.6,0.6-8.9-6.6-8.4c-5.4,0.4-9.3,0.1-8.7,7.6
		C17.7,45.3,18.1,48.8,24.6,47.4z M230.2,32.6c-5.5-1.1-8.3,0.4-7.9,6.9c0.3,4.8-0.2,8.6,6.8,8.2c5.6-0.3,9-0.6,8.6-7.8
		C237.4,34.3,236.4,31.3,230.2,32.6z M25.6,222.4c6.7,1.5,6.8-2.5,7-7.6c0.3-6.1-1.9-7.2-7.6-7.5c-7.2-0.4-7.5,3-7.8,8.6
		C16.9,222.8,20.6,223.1,25.6,222.4z M237.5,216.6c-0.1-4.6,1.6-9.8-6-9.2c-4.9,0.4-9.9-0.9-9.1,7.1c0.5,4.8-0.2,9,6.8,8.1
		C233.5,222.1,238.9,223.7,237.5,216.6z"/>
	<path class="st0" d="M126.2,197.5c-32.9,0-65.8-0.3-98.7,0.2c-8.2,0.1-10.3-2.1-10.2-10.2c0.4-40,0.4-80,0-120
		c-0.1-8.2,2.1-10.2,10.2-10.2c66.7,0.3,133.3,0.3,200,0c8.2,0,10.3,2.1,10.2,10.2c-0.4,40-0.4,80,0,120c0.1,8.2-2.1,10.3-10.2,10.2
		C193.7,197.2,160,197.5,126.2,197.5z M102.5,127.9c0,8.3,0.1,16.6,0,24.9c-0.1,8.4,2.5,12.2,11,7.1c14.6-8.8,29.1-17.6,43.7-26.3
		c6.4-3.8,7.3-7.7,0.4-11.9c-14.9-9-29.9-17.9-44.8-26.9c-6.7-4-10.2-2.2-10.3,5.6C102.4,109.6,102.5,118.7,102.5,127.9z"/>
	<path class="st0" d="M52.7,47.5c-4.8-0.3-10.5,2.2-10.5-7c0-8.1,3.6-8.5,9.6-8c5.2,0.4,11.2-2.2,11.1,7.7
		C62.8,49.2,57.6,47.3,52.7,47.5z"/>
	<path class="st0" d="M79.9,47.7c-4.8,1.1-7.6-0.6-7.7-8.2C72,30,78,32.7,82.7,32.5c5.1-0.2,10-1.5,10.1,7.4
		C92.9,50,86.7,47.1,79.9,47.7z"/>
	<path class="st0" d="M112.7,32.5c5,0.1,10.2-1.7,10.2,7.3c0.1,9.9-5.9,7.2-11.1,7.7c-6,0.5-9.6,0.1-9.6-8
		C102.2,30.3,107.8,32.8,112.7,32.5z"/>
	<path class="st0" d="M139.8,47.7c-5,1.2-7.4-1-7.6-8.3c-0.2-9.6,6.1-6.4,10.7-6.8c5.4-0.4,9.9-1.1,10,7.5
		C152.9,50.2,146.5,47,139.8,47.7z"/>
	<path class="st0" d="M172.7,47.5c-5.1-0.1-10.3,1.9-10.5-7.1c-0.3-9.9,5.6-7.6,10.9-7.9c5.7-0.3,9.7-0.5,9.8,7.8
		C182.9,49.5,177.4,47.3,172.7,47.5z"/>
	<path class="st0" d="M202.4,47.4c-5.1,0.1-10.1,1.7-10.3-7.2c-0.2-9.9,5.7-7.4,11-7.8c5.9-0.4,9.7-0.2,9.6,7.9
		C212.8,49.5,207.3,47.3,202.4,47.4z"/>
	<path class="st0" d="M52.4,222.4c-5.2,0.1-10.1,1.7-10.3-7.2c-0.2-9.9,5.8-7.4,11-7.8c5.9-0.4,9.6-0.2,9.6,7.9
		C62.8,224.6,57.3,222.3,52.4,222.4z"/>
	<path class="st0" d="M80.5,207.6c7,0,12.1-1.8,12.3,7.1c0.2,9.9-5.7,7.5-11,7.8c-5.8,0.4-9.7,0.4-9.7-7.9
		C72.2,205.6,77.6,207.6,80.5,207.6z"/>
	<path class="st0" d="M115.9,222.8c-7.3-0.9-13.8,2.5-13.8-7.7c0.1-8.5,4.5-8.1,9.9-7.6c4.6,0.4,11-2.9,10.7,6.7
		C122.5,221.4,120.7,224.4,115.9,222.8z"/>
	<path class="st0" d="M142.7,222.5c-4.8-0.3-10.5,2.2-10.5-7c0-8.1,3.6-8.5,9.6-8c5.2,0.4,11.2-2.2,11.1,7.7
		C152.8,224.2,147.6,222.3,142.7,222.5z"/>
	<path class="st0" d="M169.9,222.7c-4.8,1.1-7.6-0.6-7.7-8.2c-0.2-9.4,5.8-6.7,10.5-6.9c5.1-0.2,10-1.5,10.1,7.4
		C182.9,225,176.7,222.1,169.9,222.7z"/>
	<path class="st0" d="M202.1,207.6c5.9-0.2,10.7-1.4,10.7,7.4c0.1,10.1-6.1,7-11.2,7.6c-6.2,0.7-9.4-0.3-9.4-8.1
		C192.1,205,198.1,207.9,202.1,207.6z"/>
	<path class="st0" d="M24.6,47.4c-6.5,1.5-6.9-2.1-7.3-7.4c-0.6-7.5,3.3-7.2,8.7-7.6c7.2-0.5,6.2,3.8,6.6,8.4
		C33.3,47.4,29.9,48.3,24.6,47.4z"/>
	<path class="st0" d="M230.2,32.6c6.2-1.4,7.2,1.7,7.5,7.3c0.4,7.2-2.9,7.5-8.6,7.8c-7,0.4-6.5-3.4-6.8-8.2
		C221.9,33.1,224.7,31.6,230.2,32.6z"/>
	<path class="st0" d="M25.6,222.4c-5.1,0.7-8.7,0.4-8.3-6.5c0.3-5.6,0.6-9,7.8-8.6c5.7,0.3,7.9,1.5,7.6,7.5
		C32.4,219.9,32.3,223.9,25.6,222.4z"/>
	<path class="st0" d="M237.5,216.6c1.4,7.1-4,5.5-8.3,6c-7,0.9-6.4-3.3-6.8-8.1c-0.8-8,4.2-6.7,9.1-7.1
		C239.1,206.8,237.4,212,237.5,216.6z"/>
	<path class="st1" d="M102.5,127.9c0-9.1-0.1-18.3,0-27.4c0.1-7.8,3.6-9.6,10.3-5.6c14.9,9,29.9,17.9,44.8,26.9
		c6.9,4.2,6,8-0.4,11.9c-14.6,8.7-29.2,17.5-43.7,26.3c-8.5,5.2-11.1,1.4-11-7.1C102.5,144.5,102.5,136.2,102.5,127.9z M113.4,106.7
		c0,14.5,0,27.4,0,41.5c11.6-7.1,22.1-13.4,34.1-20.7C135.7,120.3,125.2,113.9,113.4,106.7z"/>
	<path class="st0" d="M113.4,106.7c11.8,7.2,22.3,13.5,34.1,20.8c-12,7.3-22.5,13.6-34.1,20.7C113.4,134.1,113.4,121.3,113.4,106.7z
		"/>
</g>
</svg>
